<svg xmlns="http://www.w3.org/2000/svg" width="17" height="13" viewBox="0 0 17 13">
  <defs>
    <style>
      .cls-1 {
        fill: #fff;
        fill-rule: evenodd;
      }
    </style>
  </defs>
  <path id="Прямоугольник_4_копия_2" data-name="Прямоугольник 4 копия 2" class="cls-1" d="M334,79h15a1,1,0,0,1,1,1v0.167a1,1,0,0,1-1,1H334a1,1,0,0,1-1-1V80A1,1,0,0,1,334,79Zm0,5.417h15a1,1,0,0,1,1,1v0.167a1,1,0,0,1-1,1H334a1,1,0,0,1-1-1V85.417A1,1,0,0,1,334,84.417Zm0,5.417h15a1,1,0,0,1,1,1V91a1,1,0,0,1-1,1H334a1,1,0,0,1-1-1V90.833A1,1,0,0,1,334,89.833Z" transform="translate(-333 -79)"/>
</svg>
