<svg width="25" height="22" viewBox="0 0 25 22" fill="none" xmlns="http://www.w3.org/2000/svg">
<path d="M19.7944 15.5811C18.0755 15.5811 16.6772 16.8117 16.6772 18.3242C16.6772 19.8368 18.0756 21.0674 19.7944 21.0674C21.5132 21.0674 22.9116 19.8368 22.9116 18.3242C22.9116 16.8117 21.5132 15.5811 19.7944 15.5811ZM19.7944 19.4215C19.1067 19.4215 18.5475 18.9294 18.5475 18.3242C18.5475 17.7191 19.1067 17.227 19.7944 17.227C20.482 17.227 21.0413 17.7191 21.0413 18.3242C21.0413 18.9294 20.482 19.4215 19.7944 19.4215Z" fill="white"/>
<path d="M24.8013 4.97905C24.6242 4.77963 24.3527 4.66331 24.065 4.66331H5.77249L4.93084 1.56439C4.83016 1.19408 4.45388 0.932655 4.02121 0.932655H0.935162C0.418655 0.932612 0 1.30103 0 1.75555C0 2.21008 0.418655 2.5785 0.935162 2.5785H3.28308L6.32235 13.7695C6.42304 14.1401 6.79931 14.4012 7.23198 14.4012H21.7894C22.2193 14.4012 22.594 14.1433 22.6972 13.7763L24.9728 5.684C25.0416 5.43826 24.9783 5.17847 24.8013 4.97905ZM21.0578 12.7554H7.97012L6.21947 6.30919H22.8701L21.0578 12.7554Z" fill="white"/>
<path d="M8.47884 15.5811C6.75998 15.5811 5.36163 16.8117 5.36163 18.3242C5.36163 19.8368 6.76003 21.0674 8.47884 21.0674C10.1976 21.0674 11.596 19.8368 11.596 18.3242C11.596 16.8117 10.1976 15.5811 8.47884 15.5811ZM8.47884 19.4215C7.79119 19.4215 7.23196 18.9294 7.23196 18.3242C7.23196 17.7191 7.79119 17.227 8.47884 17.227C9.16649 17.227 9.72572 17.7191 9.72572 18.3242C9.72572 18.9294 9.16649 19.4215 8.47884 19.4215Z" fill="white"/>
</svg>
